<?xml version="1.0" encoding="utf-8"?>
<!-- Generator: Adobe Illustrator 16.0.0, SVG Export Plug-In . SVG Version: 6.00 Build 0)  -->
<!DOCTYPE svg PUBLIC "-//W3C//DTD SVG 1.1//EN" "http://www.w3.org/Graphics/SVG/1.1/DTD/svg11.dtd">
<svg version="1.1" id="Layer_1" xmlns="http://www.w3.org/2000/svg" xmlns:xlink="http://www.w3.org/1999/xlink" x="0px" y="0px"
	 width="75px" height="75px" viewBox="0 0 75 75" enable-background="new 0 0 75 75" xml:space="preserve">
<g>
	<path d="M11.3,17.8l0.2,6.5H16l3.1,45.4l35.7,0.2l3.1-45.7l4.8-0.1v-6L11.3,17.8z M24.8,63.8l-2.4-39.6h5.1l0.6,39.7L24.8,63.8z
		 M38.6,63.8h-3.2l-1-39.5h5.5L38.6,63.8z M49.4,63.9h-3.5l0.8-39.4h5.1L49.4,63.9z"/>
	<polygon points="16.2,15.1 58,15.2 58.1,9.3 41.9,9.2 41.9,4.9 32.4,4.9 32.4,9 16.2,9.1 	"/>
</g>
</svg>
