<?xml version="1.0" encoding="utf-8"?>
<!-- Generator: Adobe Illustrator 16.0.0, SVG Export Plug-In . SVG Version: 6.00 Build 0)  -->
<!DOCTYPE svg PUBLIC "-//W3C//DTD SVG 1.1//EN" "http://www.w3.org/Graphics/SVG/1.1/DTD/svg11.dtd">
<svg version="1.1" id="Layer_1" xmlns="http://www.w3.org/2000/svg" xmlns:xlink="http://www.w3.org/1999/xlink" x="0px" y="0px"
	 width="75px" height="75px" viewBox="0 0 75 75" enable-background="new 0 0 75 75" xml:space="preserve">
<g>
	<path d="M62.2,31.6v29.9c0,0.5-0.4,1-1,1H13.6c-0.5,0-1-0.4-1-1V14c0-0.5,0.4-1,1-1h29.7l6.1-6.4h-42c-0.7,0-1.2,0.6-1.2,1.2v59.9
		c0,0.7,0.6,1.2,1.2,1.2h59.9c0.7,0,1.2-0.6,1.2-1.2V25.8L62.2,31.6z"/>
	<polygon points="31.5,33.6 27.7,47.3 41.2,43.4 	"/>
	<polygon points="33.1,32 43.2,41.7 65.5,19.8 55.3,9.8 	"/>
	<path d="M57,8.1l3.1-3.2c1-1,2.8-0.7,4.2,0.6l5.3,5.1c1.4,1.3,1.7,3.2,0.8,4.2l-3.3,3.4"/>
</g>
</svg>
