<?xml version="1.0" encoding="utf-8"?>
<!-- Generator: Adobe Illustrator 16.0.0, SVG Export Plug-In . SVG Version: 6.00 Build 0)  -->
<!DOCTYPE svg PUBLIC "-//W3C//DTD SVG 1.1//EN" "http://www.w3.org/Graphics/SVG/1.1/DTD/svg11.dtd">
<svg version="1.1" id="Layer_1" xmlns="http://www.w3.org/2000/svg" xmlns:xlink="http://www.w3.org/1999/xlink" x="0px" y="0px"
	 width="75px" height="75px" viewBox="0 0 75 75" enable-background="new 0 0 75 75" xml:space="preserve">
<g>
	<polygon points="48.5,35.8 50.4,47.8 59.5,39.9 	"/>
	<polygon points="49.2,33.9 60.4,38 70,13.1 58.6,9 	"/>
	<path d="M59.3,7.1l1.3-3.6c0.4-1.1,2-1.5,3.5-1l5.9,2.1c1.5,0.5,2.5,1.9,2.1,3l-1.3,3.8"/>
</g>
<path d="M66.9,28.1l-3.5,10L67,52.3l-9.4,9.4l-1.4-15.9L51,50l0.6,10.8l-11-10.1l-0.2-32.8l8.5,10.9l2.6-6.5L37.6,4.2L24,20
	L14.4,3.7L1.1,54.3l17.7,18.3l18.8-16.8l17.6,16.8l18.5-18.5L66.9,28.1z M16.5,61.8l-8.8-9.2l8.8-33.4l4,6.7L16.5,61.8z M22.6,61.3
	l3.8-34.8l7.9-9.4l0.3,33.1L22.6,61.3z"/>
</svg>
