<?xml version="1.0" encoding="utf-8"?>
<!-- Generator: Adobe Illustrator 16.0.0, SVG Export Plug-In . SVG Version: 6.00 Build 0)  -->
<!DOCTYPE svg PUBLIC "-//W3C//DTD SVG 1.1//EN" "http://www.w3.org/Graphics/SVG/1.1/DTD/svg11.dtd">
<svg version="1.1" id="Capa_1" xmlns="http://www.w3.org/2000/svg" xmlns:xlink="http://www.w3.org/1999/xlink" x="0px" y="0px"
	 width="512px" height="512px" viewBox="0 0 512 512" enable-background="new 0 0 512 512" xml:space="preserve">
<g>
	<path fill="#F3F315" stroke="#020202" stroke-width="7" stroke-miterlimit="10" d="M266.594,34.5
		C192.817,34.5,133,94.304,133,168.094c0,20.665,4.697,40.261,13.085,57.717C146.555,226.803,266.594,462,266.594,462
		l119.061-233.268c9.289-18.187,14.533-38.799,14.533-60.639C400.188,94.304,340.384,34.5,266.594,34.5z M266.594,248.25
		c-44.267,0-80.156-35.903-80.156-80.156s35.89-80.156,80.156-80.156c44.253,0,80.156,35.903,80.156,80.156
		S310.847,248.25,266.594,248.25z"/>
</g>
</svg>
