<?xml version="1.0" encoding="utf-8"?>
<!-- Generator: Adobe Illustrator 16.0.0, SVG Export Plug-In . SVG Version: 6.00 Build 0)  -->
<!DOCTYPE svg PUBLIC "-//W3C//DTD SVG 1.1//EN" "http://www.w3.org/Graphics/SVG/1.1/DTD/svg11.dtd">
<svg version="1.1" id="Layer_1" xmlns="http://www.w3.org/2000/svg" xmlns:xlink="http://www.w3.org/1999/xlink" x="0px" y="0px"
	 width="360px" height="252px" viewBox="0 0 360 252" enable-background="new 0 0 360 252" xml:space="preserve">
<g>
	<path fill="#F2F2F2" d="M360,243c0,5-4,9-9,9H9c-5,0-9-4-9-9V9c0-5,4-9,9-9h342c5,0,9,4,9,9V243z"/>
</g>
<g id="hO00Wz.tif">
	<g>
		<path fill="#D8D8D8" d="M38.2,202.5c0-51.8,0-103.5,0-155.3c0.1-0.3,0.2-0.5,0.3-0.8c2.2-16,15.2-27.6,31.4-27.6
			c73.2,0,146.4,0,219.7,0c2.9,0,6,0.4,8.8,1.2c13.6,3.9,22.8,16.1,22.8,30.2c0,15.5,0,31.1,0,46.6c0,34.1,0,68.2,0,102.3
			c0,14.8-9.8,27.4-24.1,30.9c-2,0.5-4.2,0.7-6.2,1c-74.1,0-148.2,0-222.3,0c-0.4-0.1-0.8-0.2-1.3-0.2c-12.7-1-23.6-9.5-27.5-21.6
			C39.1,207.1,38.7,204.8,38.2,202.5z M179.8,219.2c35.4,0,70.8,0,106.2,0c2.3,0,4.7-0.2,7-0.5c8.6-1.2,13.9-6.2,15.5-14.6
			c0.5-2.6,0.7-5.3,0.7-8c0-47.4,0-94.9,0-142.3c0-2.5-0.2-5.1-0.6-7.6c-1.3-8.1-6.2-13.2-14.3-14.8c-2.8-0.5-5.6-0.8-8.5-0.8
			c-70.8,0-141.6,0-212.5,0c-2.3,0-4.7,0.2-7,0.5c-8.5,1.2-13.8,5.9-15.6,14.3c-0.6,2.8-0.8,5.7-0.8,8.6c0,47.2,0,94.5,0,141.7
			c0,2.6,0.2,5.2,0.6,7.8c1.3,7.9,5.8,13.1,13.8,14.8c2.8,0.6,5.8,0.9,8.7,0.9C108.7,219.2,144.3,219.2,179.8,219.2z"/>
		<path fill-rule="evenodd" clip-rule="evenodd" fill="#D8D8D8" d="M232.7,60.1c5.9,5.3,11.7,10.5,17.5,15.8
			c13.2,11.9,26.4,23.8,39.7,35.7c1.3,1.2,1.8,2.3,1.8,4.1c-0.1,28,0,56,0,84c0,0.6,0,1.2,0,1.9c-74.7,0-149.3,0-224,0
			c0-0.6,0-1.1,0-1.5c0-16.7,0-33.4,0-50.1c0-0.9,0.1-1.5,0.9-2.1c19.1-15.2,38.1-30.4,57.1-45.7c0.3-0.2,0.6-0.4,1-0.7
			c9.8,7.8,19.6,15.7,29.4,23.5C181.7,103.3,207.2,81.7,232.7,60.1z"/>
		<path fill-rule="evenodd" clip-rule="evenodd" fill="#D8D8D8" d="M114.9,71.8c0,13-10.5,23.6-23.5,23.7c-13,0-23.6-10.5-23.7-23.5
			c0-13,10.5-23.6,23.5-23.6C104.3,48.3,114.8,58.8,114.9,71.8z"/>
	</g>
</g>
</svg>
