<?xml version="1.0" encoding="utf-8"?>
<!-- Generator: Adobe Illustrator 16.0.0, SVG Export Plug-In . SVG Version: 6.00 Build 0)  -->
<!DOCTYPE svg PUBLIC "-//W3C//DTD SVG 1.1//EN" "http://www.w3.org/Graphics/SVG/1.1/DTD/svg11.dtd">
<svg version="1.1" id="Layer_1" xmlns="http://www.w3.org/2000/svg" xmlns:xlink="http://www.w3.org/1999/xlink" x="0px" y="0px"
	 width="28.6px" height="24.6px" viewBox="0 0 28.6 24.6" enable-background="new 0 0 28.6 24.6" xml:space="preserve">
<path d="M20.5,21.6c-2.2,1.9-5,3.1-8.1,3.1C5.5,24.6,0,19.1,0,12.3C0,5.5,5.5,0,12.3,0c6.1,0,11.2,4.5,12.2,10.3h4.1l-6.3,7.6
	l-6.2-7.7l4.3,0c-0.9-3.6-4.2-6.2-8-6.2C7.7,4,4,7.7,4,12.3s3.7,8.3,8.3,8.3c2.2,0,4.2-0.8,5.6-2.2L20.5,21.6z"/>
</svg>
