<?xml version="1.0" encoding="utf-8"?>
<!-- Generator: Adobe Illustrator 16.0.0, SVG Export Plug-In . SVG Version: 6.00 Build 0)  -->
<!DOCTYPE svg PUBLIC "-//W3C//DTD SVG 1.1//EN" "http://www.w3.org/Graphics/SVG/1.1/DTD/svg11.dtd">
<svg version="1.1" id="Layer_1" xmlns="http://www.w3.org/2000/svg" xmlns:xlink="http://www.w3.org/1999/xlink" x="0px" y="0px"
	 width="512px" height="512px" viewBox="0 0 512 512" enable-background="new 0 0 512 512" xml:space="preserve">
<g>
	<path d="M441.953,142.352c-4.447-68.872-61.709-123.36-131.705-123.36c-59.481,0-109.766,39.346-126.264,93.429
		c-9.244-3.5-19.259-5.431-29.729-5.431c-42.84,0-78.164,32.08-83.322,73.523c-0.309-0.004-0.614-0.023-0.924-0.023
		c-36.863,0-66.747,29.883-66.747,66.747s29.883,66.746,66.747,66.746c4.386,0,8.669-0.436,12.819-1.243
		c20.151,27.069,52.394,44.604,88.734,44.604c31.229,0,59.429-12.952,79.533-33.772c15.071,15.091,35.901,24.428,58.913,24.428
		c31.43,0,58.783-17.42,72.955-43.127c11.676,5.824,24.844,9.106,38.777,9.106c48.047,0,86.998-38.949,86.998-86.996
		C508.738,185.895,480.252,151.465,441.953,142.352z"/>
	<g id="_x23_1e1e1cff">
		<path d="M351.512,430.684c6.811-25.64,18.34-49.771,30.301-73.341c11.959,23.57,23.49,47.711,30.299,73.341
			c4.682,17.81-0.77,39.47-16.488,50.18c-9.59,6.63-23.281,4.979-31.551-3.04C351.432,466.184,347.213,447.023,351.512,430.684z"/>
	</g>
	<g id="_x23_1e1e1cff_1_">
		<path d="M212.02,438.715c6.81-25.64,18.34-49.771,30.3-73.341c11.96,23.57,23.489,47.711,30.3,73.341
			c4.68,17.81-0.771,39.47-16.489,50.18c-9.59,6.63-23.281,4.979-31.551-3.04C211.939,474.215,207.72,455.055,212.02,438.715z"/>
	</g>
	<g id="_x23_1e1e1cff_2_">
		<path d="M63.527,430.684c6.81-25.64,18.34-49.771,30.3-73.341c11.96,23.57,23.49,47.711,30.3,73.341
			c4.681,17.81-0.771,39.47-16.489,50.18c-9.59,6.63-23.281,4.979-31.551-3.04C63.447,466.184,59.228,447.023,63.527,430.684z"/>
	</g>
</g>
</svg>
