<?xml version="1.0" encoding="utf-8"?>
<!-- Generator: Adobe Illustrator 16.0.0, SVG Export Plug-In . SVG Version: 6.00 Build 0)  -->
<!DOCTYPE svg PUBLIC "-//W3C//DTD SVG 1.1//EN" "http://www.w3.org/Graphics/SVG/1.1/DTD/svg11.dtd">
<svg version="1.1" id="Layer_1" xmlns="http://www.w3.org/2000/svg" xmlns:xlink="http://www.w3.org/1999/xlink" x="0px" y="0px"
	 width="792px" height="612px" viewBox="0 0 792 612" enable-background="new 0 0 792 612" xml:space="preserve">
<polygon points="229.998,230.742 280.022,180.717 266.542,149.475 131.109,14.006 63.032,82.098 198.464,217.546 "/>
<path d="M449.784,267.33L344.722,162.275c-7.809-7.809-20.58-7.809-28.382,0L211.293,267.33c-7.809,7.808-7.809,20.573,0,28.382
	L316.34,400.759c7.802,7.809,20.573,7.809,28.382,0.007l105.062-105.054C457.585,287.903,457.585,275.131,449.784,267.33z"/>
<polygon points="462.661,345.538 431.129,332.342 381.105,382.365 394.584,413.608 530.018,549.069 598.094,480.991 "/>
<path d="M158.515,343.018l-42.868,4.205c7.717,86.945,76.142,156.353,162.668,165.479l4.184-42.818
	C216.426,462.634,164.284,409.559,158.515,343.018z"/>
<path d="M72.179,352.107l-42.846,4.17c11.802,127.851,113.493,229.592,241.302,241.316l4.184-42.782
	C167.42,544.779,82.118,459.52,72.179,352.107z"/>
</svg>
