<?xml version="1.0" encoding="utf-8"?>
<!-- Generator: Adobe Illustrator 16.0.0, SVG Export Plug-In . SVG Version: 6.00 Build 0)  -->
<!DOCTYPE svg PUBLIC "-//W3C//DTD SVG 1.1//EN" "http://www.w3.org/Graphics/SVG/1.1/DTD/svg11.dtd">
<svg version="1.1" id="Layer_1" xmlns="http://www.w3.org/2000/svg" xmlns:xlink="http://www.w3.org/1999/xlink" x="0px" y="0px"
	 width="612px" height="612px" viewBox="0 0 612 612" enable-background="new 0 0 612 612" xml:space="preserve">
<g opacity="0.7">
	<path fill="#FFFFFF" d="M394.4,215.3c-4.2,0-8.5,0-12.7,0c0-4.3-4.3-12.7-8.5-17c-4.2-4.3-10.6-8.5-23.3-8.5c-4.3,0-8.5,0-12.8,2.1
		c-2.1-4.3-4.3-6.4-6.4-10.6c-4.2-4.3-10.6-8.5-23.4-8.5c-17,0-25.5,10.6-29.7,21.2c-2.1,0-6.4-2.1-10.6-2.1
		c-10.6,0-17,4.2-23.3,8.5C233,213.2,233,230.2,233,232.3v8.5c-12.7,0-23.3,4.3-29.7,10.6c-12.7,14.9-12.7,34-12.7,59.4
		c0,4.3,0,10.6,0,14.9c0,29.7,14.9,44.6,29.7,59.4l6.4,8.5c27.6,25.5,53.1,34,108.3,34c61.6,0,89.2-34,89.2-108.3v-53.1
		C424.1,251.4,419.9,221.7,394.4,215.3z M349.8,211c8.5,0,10.6,8.5,10.6,12.8v17c0,6.4,4.3,10.6,8.5,10.6c6.4,0,10.6-2.1,10.6-8.5
		c0,0,0-8.5,8.5-6.4c12.8,4.3,14.9,23.3,14.9,27.6l0,0v55.2c0,72.2-27.6,87-68,87c-51,0-70.1-6.4-91.3-27.6
		c-2.1-2.1-4.3-4.3-8.5-8.5c-14.8-14.9-23.3-23.3-23.3-44.6c0-4.2,0-6.4,0-12.8c0-21.2,0-38.2,6.4-44.6c2.1-4.3,8.5-6.4,14.9-6.4v17
		l-6.4,25.5c0,2.1,0,2.1,2.1,2.1c2.1,2.1,4.3,0,4.3,0l21.2-25.5V279v-42.5c0-2.1,0-12.7,4.3-17c2.1-2.1,4.3-4.3,8.5-4.3
		c6.4,0,8.5,4.3,8.5,8.5v8.5c0,4.3,4.3,10.6,10.6,10.6c6.4,0,10.6-6.4,10.6-10.6v-27.6c0-2.1,0-10.6,10.6-10.6
		c6.4,0,10.6,4.3,10.6,10.6v25.5c0,6.4,4.3,12.7,10.6,12.7c6.4,0,10.6-6.4,10.6-10.6v-10.6C339.2,215.3,343.4,211,349.8,211z"/>
</g>
<g opacity="0.7">
	<g>
		<line fill="none" stroke="#FFFFFF" stroke-width="10" stroke-miterlimit="10" x1="313.9" y1="138.1" x2="313.9" y2="61.2"/>
		<g>
			<path fill="#FFFFFF" d="M313.9,65.2c-10.4,10.4-31.1,15.4-45.4,15.8c19.2-14.3,36-32.9,45.4-55.5c9,22.5,26.8,40.3,45.4,55.5
				C344,79.8,325.4,76.1,313.9,65.2z"/>
		</g>
	</g>
</g>
<g opacity="0.7">
	<g>
		<line fill="none" stroke="#FFFFFF" stroke-width="10" stroke-miterlimit="10" x1="313.9" y1="469.1" x2="313.9" y2="546"/>
		<g>
			<path fill="#FFFFFF" d="M313.9,542c10.4-10.4,31.1-15.4,45.4-15.8c-19.2,14.3-36,32.9-45.4,55.5c-9-22.5-26.8-40.3-45.4-55.5
				C283.8,527.4,302.4,531.1,313.9,542z"/>
		</g>
	</g>
</g>
<g opacity="0.7">
	<g>
		<line fill="none" stroke="#FFFFFF" stroke-width="10" stroke-miterlimit="10" x1="480.8" y1="304.3" x2="557.7" y2="304.3"/>
		<g>
			<path fill="#FFFFFF" d="M553.6,304.3c-10.4-10.4-15.4-31.1-15.8-45.4c14.3,19.2,32.9,36,55.5,45.4c-22.5,9-40.3,26.8-55.5,45.4
				C539,334.4,542.8,315.8,553.6,304.3z"/>
		</g>
	</g>
</g>
<g opacity="0.7">
	<g>
		<line fill="none" stroke="#FFFFFF" stroke-width="10" stroke-miterlimit="10" x1="133.7" y1="304.3" x2="56.8" y2="304.3"/>
		<g>
			<path fill="#FFFFFF" d="M60.8,304.3c10.4,10.4,15.4,31.1,15.8,45.4c-14.3-19.2-32.9-36-55.5-45.4c22.5-9,40.3-26.8,55.5-45.4
				C75.4,274.2,71.6,292.9,60.8,304.3z"/>
		</g>
	</g>
</g>
</svg>
