<?xml version="1.0" encoding="utf-8"?>
<!-- Generator: Adobe Illustrator 16.0.0, SVG Export Plug-In . SVG Version: 6.00 Build 0)  -->
<!DOCTYPE svg PUBLIC "-//W3C//DTD SVG 1.1//EN" "http://www.w3.org/Graphics/SVG/1.1/DTD/svg11.dtd">
<svg version="1.1" id="Layer_1" xmlns="http://www.w3.org/2000/svg" xmlns:xlink="http://www.w3.org/1999/xlink" x="0px" y="0px"
	 width="792px" height="612px" viewBox="0 0 792 612" enable-background="new 0 0 792 612" xml:space="preserve">
<g>
	<path fill="#454545" d="M472.5,212.3c-4.2,0-8.5,0-12.7,0c0-4.3-4.3-12.7-8.5-17c-4.2-4.3-10.6-8.5-23.3-8.5c-4.3,0-8.5,0-12.7,2.1
		c-2.1-4.3-4.3-6.4-6.4-10.6c-4.2-4.3-10.6-8.5-23.3-8.5c-17,0-25.5,10.6-29.7,21.2c-2.1,0-6.4-2.1-10.6-2.1
		c-10.6,0-17,4.2-23.3,8.5c-10.6,12.8-10.6,29.7-10.6,31.8v8.5c-12.7,0-23.3,4.3-29.7,10.6c-12.7,14.9-12.7,34-12.7,59.4
		c0,4.3,0,10.6,0,14.9c0,29.7,14.9,44.6,29.7,59.4l6.4,8.5c27.6,25.5,53.1,34,108.3,34c61.6,0,89.2-34,89.2-108.3v-53.1
		C502.3,248.4,498,218.7,472.5,212.3z M428,208c8.5,0,10.6,8.5,10.6,12.8v17c0,6.4,4.3,10.6,8.5,10.6c6.4,0,10.6-2.1,10.6-8.5
		c0,0,0-8.5,8.5-6.4c12.8,4.3,14.9,23.3,14.9,27.6l0,0v55.2c0,72.2-27.6,87-67.9,87c-50.9,0-70.1-6.4-91.3-27.6
		c-2.1-2.1-4.3-4.3-8.5-8.5c-14.8-14.9-23.3-23.3-23.3-44.6c0-4.2,0-6.4,0-12.8c0-21.2,0-38.2,6.4-44.6c2.1-4.3,8.5-6.4,14.9-6.4v17
		l-6.4,25.5c0,2.1,0,2.1,2.1,2.1c2.1,2.1,4.3,0,4.3,0l21.2-25.5V276v-42.5c0-2.1,0-12.7,4.3-17c2.1-2.1,4.3-4.3,8.5-4.3
		c6.4,0,8.5,4.3,8.5,8.5v8.5c0,4.3,4.3,10.6,10.6,10.6c6.4,0,10.6-6.4,10.6-10.6v-27.6c0-2.1,0-10.6,10.6-10.6
		c6.4,0,10.6,4.3,10.6,10.6v25.5c0,6.4,4.3,12.7,10.6,12.7c6.4,0,10.6-6.4,10.6-10.6v-10.6C417.4,212.3,421.6,208,428,208z"/>
</g>
<g>
	<g>
		<line fill="none" stroke="#444444" stroke-width="10" stroke-miterlimit="10" x1="392.1" y1="135.1" x2="392.1" y2="58.2"/>
		<g>
			<path fill="#444444" d="M392.1,62.2c-10.4,10.4-31.1,15.4-45.4,15.8c19.2-14.3,36-32.9,45.4-55.5c9,22.5,26.8,40.3,45.4,55.5
				C422.2,76.8,403.5,73.1,392.1,62.2z"/>
		</g>
	</g>
</g>
<g>
	<g>
		<line fill="none" stroke="#444444" stroke-width="10" stroke-miterlimit="10" x1="392.1" y1="466.1" x2="392.1" y2="543"/>
		<g>
			<path fill="#444444" d="M392.1,539c10.4-10.4,31.1-15.4,45.4-15.8c-19.2,14.3-36,32.9-45.4,55.5c-9-22.5-26.8-40.3-45.4-55.5
				C362,524.4,380.6,528.1,392.1,539z"/>
		</g>
	</g>
</g>
<g>
	<g>
		<line fill="none" stroke="#444444" stroke-width="10" stroke-miterlimit="10" x1="558.9" y1="301.3" x2="635.8" y2="301.3"/>
		<g>
			<path fill="#444444" d="M631.8,301.3c-10.4-10.4-15.4-31.1-15.8-45.4c14.3,19.2,32.9,36,55.5,45.4c-22.5,9-40.3,26.8-55.5,45.4
				C617.2,331.4,621,312.8,631.8,301.3z"/>
		</g>
	</g>
</g>
<g>
	<g>
		<line fill="none" stroke="#444444" stroke-width="10" stroke-miterlimit="10" x1="211.9" y1="301.3" x2="135" y2="301.3"/>
		<g>
			<path fill="#444444" d="M139,301.3c10.4,10.4,15.4,31.1,15.8,45.4c-14.3-19.2-32.9-36-55.5-45.4c22.5-9,40.3-26.8,55.5-45.4
				C153.6,271.2,149.9,289.9,139,301.3z"/>
		</g>
	</g>
</g>
</svg>
