<?xml version="1.0" encoding="utf-8"?>
<!-- Generator: Adobe Illustrator 25.2.0, SVG Export Plug-In . SVG Version: 6.00 Build 0)  -->
<svg version="1.0" id="Capa_1" xmlns="http://www.w3.org/2000/svg" xmlns:xlink="http://www.w3.org/1999/xlink" x="0px" y="0px"
	 width="80px" height="96px" viewBox="0 0 80 96" enable-background="new 0 0 80 96" xml:space="preserve">
<path fill="#C67C00" d="M40,7c17.85,0,34,13.202,34,33.62C74,54.232,62.653,70.345,40,89C17.347,70.345,6,54.232,6,40.62
	C6,20.202,22.15,7,40,7z"/>
<g>
	<path fill="#00BFA5" d="M430.338,270.853c7.56,0,14.4,5.796,14.4,14.76c0,5.976-4.806,13.05-14.4,21.24
		c-9.594-8.19-14.4-15.264-14.4-21.24C415.938,276.649,422.778,270.853,430.338,270.853z"/>
	<path fill="#FFFFFF" d="M440.219,279.031c-0.095-0.113-0.235-0.178-0.382-0.178h-0.51c-5.04-0.002-9.021-0.003-11.952,0.698
		c-1.575,0.377-2.793,0.946-3.723,1.739c-1.004,0.856-1.688,1.977-2.093,3.429c-0.269,0.964-0.395,2.705,0.136,4.437
		c0.196,0.64,0.502,1.244,0.91,1.799c-1.216,1.905-2.267,4.414-2.267,7.399c0,0.276,0.224,0.5,0.5,0.5s0.5-0.224,0.5-0.5
		c0-4.605,2.728-8.021,4.354-9.646c1.167-1.167,2.486-2.152,3.816-2.848c1.238-0.648,2.421-1.005,3.331-1.005
		c0.276,0,0.5-0.224,0.5-0.5s-0.224-0.5-0.5-0.5c-1.084,0-2.396,0.387-3.794,1.12c-1.418,0.743-2.822,1.789-4.059,3.027
		c-0.522,0.522-1.15,1.218-1.774,2.07c-0.242-0.381-0.43-0.785-0.559-1.207c-0.5-1.632-0.316-3.204-0.129-3.875
		c1.43-5.125,6.862-5.138,16.717-5.135c-1.175,6.288-3.366,10.358-6.516,12.101c-2.922,1.617-5.82,0.735-6.931,0.28
		c-0.234-0.096-0.47-0.214-0.699-0.35c-0.237-0.141-0.544-0.063-0.685,0.174c-0.141,0.237-0.063,0.544,0.174,0.685
		c0.272,0.162,0.552,0.302,0.832,0.417c0.622,0.254,1.624,0.58,2.865,0.687c0.274,0.024,0.545,0.035,0.814,0.035
		c1.469,0,2.849-0.353,4.115-1.053c1.609-0.89,3.001-2.339,4.139-4.304c1.334-2.305,2.338-5.362,2.983-9.086
		c0.025-0.145-0.015-0.294-0.11-0.407L440.219,279.031z"/>
</g>
<path fill="#FFFFFF" d="M54.789,25.222c-4.395,0-7.972,3.576-7.972,7.971c0,1.788,0.599,3.434,1.596,4.765l-3.874,3.874
	L33.831,31.125c0.998-1.331,1.596-2.977,1.596-4.764c0-4.395-3.577-7.972-7.972-7.972s-7.972,3.577-7.972,7.972
	c0,4.394,3.577,7.971,7.972,7.971c1.788,0,3.434-0.599,4.765-1.596l10.708,10.708l-4.527,4.527c-1.754-1.404-3.974-2.249-6.39-2.249
	c-5.652,0-10.25,4.598-10.25,10.25s4.598,10.25,10.25,10.25s10.25-4.598,10.25-10.25c0-2.416-0.845-4.636-2.249-6.39l10.012-10.012
	c1.331,0.998,2.978,1.596,4.765,1.596c4.395,0,7.972-3.577,7.972-7.972S59.184,25.222,54.789,25.222z M21.761,26.361
	c0-3.14,2.555-5.694,5.694-5.694s5.694,2.555,5.694,5.694c0,3.14-2.555,5.693-5.694,5.693S21.761,29.5,21.761,26.361z
	 M32.011,63.943c-4.395,0-7.972-3.577-7.972-7.972s3.577-7.972,7.972-7.972s7.972,3.577,7.972,7.972S36.407,63.943,32.011,63.943z
	 M54.789,38.887c-3.14,0-5.694-2.554-5.694-5.694c0-3.139,2.555-5.692,5.694-5.692c3.14,0,5.694,2.554,5.694,5.692
	C60.483,36.334,57.929,38.887,54.789,38.887z"/>
</svg>
