<?xml version="1.0" encoding="utf-8"?>
<!-- Generator: Adobe Illustrator 25.2.0, SVG Export Plug-In . SVG Version: 6.00 Build 0)  -->
<svg version="1.0" id="Capa_1" xmlns="http://www.w3.org/2000/svg" xmlns:xlink="http://www.w3.org/1999/xlink" x="0px" y="0px"
	 width="80px" height="96px" viewBox="0 0 80 96" enable-background="new 0 0 80 96" xml:space="preserve">
<path fill="#389BB2" d="M40,7c17.85,0,34,13.202,34,33.62C74,54.232,62.653,70.345,40,89C17.347,70.345,6,54.232,6,40.62
	C6,20.202,22.15,7,40,7z"/>
<g>
	<path fill="#00BFA5" d="M430.338,270.853c7.56,0,14.4,5.796,14.4,14.76c0,5.976-4.806,13.05-14.4,21.24
		c-9.594-8.19-14.4-15.264-14.4-21.24C415.938,276.649,422.778,270.853,430.338,270.853z"/>
	<path fill="#FFFFFF" d="M440.219,279.031c-0.095-0.113-0.235-0.178-0.382-0.178h-0.51c-5.04-0.002-9.021-0.003-11.952,0.698
		c-1.575,0.377-2.793,0.946-3.723,1.739c-1.004,0.856-1.688,1.977-2.093,3.429c-0.269,0.964-0.395,2.705,0.136,4.437
		c0.196,0.64,0.502,1.244,0.91,1.799c-1.216,1.905-2.267,4.414-2.267,7.399c0,0.276,0.224,0.5,0.5,0.5s0.5-0.224,0.5-0.5
		c0-4.605,2.728-8.021,4.354-9.646c1.167-1.167,2.486-2.152,3.816-2.848c1.238-0.648,2.421-1.005,3.331-1.005
		c0.276,0,0.5-0.224,0.5-0.5s-0.224-0.5-0.5-0.5c-1.084,0-2.396,0.387-3.794,1.12c-1.418,0.743-2.822,1.789-4.059,3.027
		c-0.522,0.522-1.15,1.218-1.774,2.07c-0.242-0.381-0.43-0.785-0.559-1.207c-0.5-1.632-0.316-3.204-0.129-3.875
		c1.43-5.125,6.862-5.138,16.717-5.135c-1.175,6.288-3.366,10.358-6.516,12.101c-2.922,1.617-5.82,0.735-6.931,0.28
		c-0.234-0.096-0.47-0.214-0.699-0.35c-0.237-0.141-0.544-0.063-0.685,0.174c-0.141,0.237-0.063,0.544,0.174,0.685
		c0.272,0.162,0.552,0.302,0.832,0.417c0.622,0.254,1.624,0.58,2.865,0.687c0.274,0.024,0.545,0.035,0.814,0.035
		c1.469,0,2.849-0.353,4.115-1.053c1.609-0.89,3.001-2.339,4.139-4.304c1.334-2.305,2.338-5.362,2.983-9.086
		c0.025-0.145-0.015-0.294-0.11-0.407L440.219,279.031z"/>
</g>
<path fill="#FFFFFF" d="M61.303,40.805c-0.101-0.114-2.551-2.816-6.379-5.55c-2.259-1.614-4.532-2.9-6.754-3.826
	c-2.816-1.174-5.565-1.769-8.17-1.769s-5.354,0.596-8.17,1.769c-2.223,0.926-4.495,2.214-6.754,3.826
	c-3.828,2.734-6.277,5.438-6.379,5.55c-0.369,0.41-0.369,1.034,0,1.444c0.101,0.114,2.551,2.816,6.379,5.55
	c2.259,1.614,4.532,2.9,6.754,3.826c2.816,1.174,5.565,1.769,8.17,1.769s5.354-0.596,8.17-1.769
	c2.223-0.926,4.495-2.214,6.754-3.826c3.828-2.734,6.277-5.438,6.379-5.55C61.672,41.838,61.672,41.215,61.303,40.805z
	 M45.554,32.76c1.957,1.646,3.077,4.042,3.077,6.607c0,4.76-3.871,8.632-8.632,8.632s-8.632-3.871-8.632-8.632
	c0-2.564,1.12-4.961,3.077-6.607c1.774-0.578,3.649-0.945,5.554-0.945C41.905,31.815,43.781,32.182,45.554,32.76z M53.631,46.07
	c-3.308,2.356-8.358,5.166-13.631,5.166s-10.323-2.81-13.631-5.166c-2.497-1.778-4.406-3.578-5.371-4.545
	c0.965-0.967,2.874-2.764,5.371-4.545c1.144-0.816,2.495-1.683,3.992-2.471c-0.749,1.485-1.15,3.14-1.15,4.857
	c0,5.949,4.84,10.789,10.789,10.789s10.789-4.84,10.789-10.789c0-1.718-0.401-3.373-1.15-4.857c1.498,0.788,2.848,1.657,3.992,2.471
	c2.497,1.778,4.406,3.578,5.371,4.545C58.038,42.492,56.128,44.29,53.631,46.07z"/>
</svg>
