<?xml version="1.0" encoding="utf-8"?>
<!-- Generator: Adobe Illustrator 25.2.0, SVG Export Plug-In . SVG Version: 6.00 Build 0)  -->
<svg version="1.0" id="Capa_1" xmlns="http://www.w3.org/2000/svg" xmlns:xlink="http://www.w3.org/1999/xlink" x="0px" y="0px"
	 width="80px" height="96px" viewBox="0 0 80 96" enable-background="new 0 0 80 96" xml:space="preserve">
<path fill="#00BFA5" d="M40,7c17.85,0,34,13.202,34,33.62C74,54.232,62.653,70.345,40,89C17.347,70.345,6,54.232,6,40.62
	C6,20.202,22.15,7,40,7z"/>
<path fill="#FFFFFF" d="M63.04,26.299c0.058-0.334-0.035-0.678-0.254-0.938l-0.007-0.007c-0.219-0.261-0.542-0.41-0.881-0.41h-1.176
	c-11.62-0.005-20.798-0.007-27.556,1.609c-3.631,0.869-6.439,2.181-8.584,4.009c-2.315,1.974-3.892,4.558-4.826,7.906
	c-0.62,2.223-0.911,6.237,0.314,10.23c0.452,1.476,1.157,2.868,2.098,4.148c-2.322,3.638-4.379,8.234-5.018,13.615
	c0.68,0.864,1.385,1.734,2.127,2.613c0.319-10.193,6.359-17.761,10.008-21.408c2.691-2.691,5.732-4.962,8.798-6.566
	c2.854-1.494,5.582-2.317,7.68-2.317c0.636,0,1.153-0.516,1.153-1.153c0-0.636-0.516-1.153-1.153-1.153
	c-2.499,0-5.524,0.892-8.747,2.582c-3.269,1.713-6.506,4.125-9.358,6.979c-1.203,1.203-2.651,2.808-4.09,4.773
	c-0.558-0.878-0.991-1.81-1.289-2.783c-1.153-3.763-0.729-7.387-0.297-8.934c3.297-11.816,15.821-11.846,38.542-11.839
	c-2.709,14.497-7.76,23.881-15.023,27.899c-6.737,3.728-13.418,1.695-15.98,0.646c-0.54-0.221-1.084-0.493-1.612-0.807
	c-0.546-0.325-1.254-0.145-1.579,0.401c-0.325,0.546-0.145,1.254,0.401,1.579c0.627,0.374,1.273,0.696,1.918,0.961
	c1.434,0.586,3.744,1.337,6.605,1.584c0.632,0.055,1.257,0.081,1.877,0.081c3.387,0,6.569-0.814,9.487-2.428
	c3.71-2.052,6.919-5.393,9.543-9.923C59.238,41.933,61.553,34.885,63.04,26.299z"/>
<g>
	<path fill="#00BFA5" d="M430.338,270.853c7.56,0,14.4,5.796,14.4,14.76c0,5.976-4.806,13.05-14.4,21.24
		c-9.594-8.19-14.4-15.264-14.4-21.24C415.938,276.649,422.778,270.853,430.338,270.853z"/>
	<path fill="#FFFFFF" d="M440.219,279.031c-0.095-0.113-0.235-0.178-0.382-0.178h-0.51c-5.04-0.002-9.021-0.003-11.952,0.698
		c-1.575,0.377-2.793,0.946-3.723,1.739c-1.004,0.856-1.688,1.977-2.093,3.429c-0.269,0.964-0.395,2.705,0.136,4.437
		c0.196,0.64,0.502,1.244,0.91,1.799c-1.216,1.905-2.267,4.414-2.267,7.399c0,0.276,0.224,0.5,0.5,0.5s0.5-0.224,0.5-0.5
		c0-4.605,2.728-8.021,4.354-9.646c1.167-1.167,2.486-2.152,3.816-2.848c1.238-0.648,2.421-1.005,3.331-1.005
		c0.276,0,0.5-0.224,0.5-0.5s-0.224-0.5-0.5-0.5c-1.084,0-2.396,0.387-3.794,1.12c-1.418,0.743-2.822,1.789-4.059,3.027
		c-0.522,0.522-1.15,1.218-1.774,2.07c-0.242-0.381-0.43-0.785-0.559-1.207c-0.5-1.632-0.316-3.204-0.129-3.875
		c1.43-5.125,6.862-5.138,16.717-5.135c-1.175,6.288-3.366,10.358-6.516,12.101c-2.922,1.617-5.82,0.735-6.931,0.28
		c-0.234-0.096-0.47-0.214-0.699-0.35c-0.237-0.141-0.544-0.063-0.685,0.174c-0.141,0.237-0.063,0.544,0.174,0.685
		c0.272,0.162,0.552,0.302,0.832,0.417c0.622,0.254,1.624,0.58,2.865,0.687c0.274,0.024,0.545,0.035,0.814,0.035
		c1.469,0,2.849-0.353,4.115-1.053c1.609-0.89,3.001-2.339,4.139-4.304c1.334-2.305,2.338-5.362,2.983-9.086
		c0.025-0.145-0.015-0.294-0.11-0.407L440.219,279.031z"/>
</g>
</svg>
