<?xml version="1.0" encoding="utf-8"?>
<!-- Generator: Adobe Illustrator 25.2.0, SVG Export Plug-In . SVG Version: 6.00 Build 0)  -->
<svg version="1.0" id="Capa_1" xmlns="http://www.w3.org/2000/svg" xmlns:xlink="http://www.w3.org/1999/xlink" x="0px" y="0px"
	 width="80px" height="96px" viewBox="0 0 80 96" enable-background="new 0 0 80 96" xml:space="preserve">
<path fill="#FFDD4B" d="M40,7c17.85,0,34,13.202,34,33.62C74,54.232,62.653,70.345,40,89C17.347,70.345,6,54.232,6,40.62
	C6,20.202,22.15,7,40,7z"/>
<g>
	<path fill="#00BFA5" d="M430.338,270.853c7.56,0,14.4,5.796,14.4,14.76c0,5.976-4.806,13.05-14.4,21.24
		c-9.594-8.19-14.4-15.264-14.4-21.24C415.938,276.649,422.778,270.853,430.338,270.853z"/>
	<path fill="#FFFFFF" d="M440.219,279.031c-0.095-0.113-0.235-0.178-0.382-0.178h-0.51c-5.04-0.002-9.021-0.003-11.952,0.698
		c-1.575,0.377-2.793,0.946-3.723,1.739c-1.004,0.856-1.688,1.977-2.093,3.429c-0.269,0.964-0.395,2.705,0.136,4.437
		c0.196,0.64,0.502,1.244,0.91,1.799c-1.216,1.905-2.267,4.414-2.267,7.399c0,0.276,0.224,0.5,0.5,0.5s0.5-0.224,0.5-0.5
		c0-4.605,2.728-8.021,4.354-9.646c1.167-1.167,2.486-2.152,3.816-2.848c1.238-0.648,2.421-1.005,3.331-1.005
		c0.276,0,0.5-0.224,0.5-0.5s-0.224-0.5-0.5-0.5c-1.084,0-2.396,0.387-3.794,1.12c-1.418,0.743-2.822,1.789-4.059,3.027
		c-0.522,0.522-1.15,1.218-1.774,2.07c-0.242-0.381-0.43-0.785-0.559-1.207c-0.5-1.632-0.316-3.204-0.129-3.875
		c1.43-5.125,6.862-5.138,16.717-5.135c-1.175,6.288-3.366,10.358-6.516,12.101c-2.922,1.617-5.82,0.735-6.931,0.28
		c-0.234-0.096-0.47-0.214-0.699-0.35c-0.237-0.141-0.544-0.063-0.685,0.174c-0.141,0.237-0.063,0.544,0.174,0.685
		c0.272,0.162,0.552,0.302,0.832,0.417c0.622,0.254,1.624,0.58,2.865,0.687c0.274,0.024,0.545,0.035,0.814,0.035
		c1.469,0,2.849-0.353,4.115-1.053c1.609-0.89,3.001-2.339,4.139-4.304c1.334-2.305,2.338-5.362,2.983-9.086
		c0.025-0.145-0.015-0.294-0.11-0.407L440.219,279.031z"/>
</g>
<g>
	<path fill="#FFFFFF" d="M62.963,42.416c-1.298,0.452-2.613,0.909-3.934,1.308c0.11-0.839,0.186-1.684,0.186-2.532
		c0-10.615-8.636-19.251-19.251-19.251c-9.635,0-17.857,7.323-19.074,16.799c-1.568,0.461-3.045,1.017-4.495,1.57
		c-2.977,1.136-5.789,2.209-9.079,2.209v2.187c3.693,0,6.827-1.196,9.858-2.353c3.206-1.224,6.522-2.489,10.72-2.489
		c4.755,0,8.673,1.883,12.463,3.706c3.639,1.749,7.401,3.558,11.746,3.558c3.983,0,7.843-1.345,11.578-2.647
		c3.238-1.13,6.297-2.195,9.001-2.195v-2.187C69.609,40.099,66.381,41.224,62.963,42.416z M41.306,41.599
		c-4.01-1.928-8.157-3.922-13.41-3.922c-1.708,0-3.264,0.186-4.72,0.484c1.446-7.982,8.54-14.033,16.79-14.033
		c9.41,0,17.064,7.654,17.064,17.064c0,1.059-0.109,2.115-0.302,3.149c-1.544,0.361-3.09,0.6-4.623,0.6
		C48.258,44.941,44.881,43.318,41.306,41.599z"/>
	<path fill="#FFFFFF" d="M52.483,55.836c-3.846,0-7.223-1.623-10.799-3.342c-4.011-1.928-8.158-3.922-13.411-3.922
		c-4.591,0-8.218,1.382-11.132,2.492l0.779,2.044c3.492-1.331,6.472-2.349,10.352-2.349c4.755,0,8.674,1.883,12.463,3.706
		c3.64,1.749,7.402,3.558,11.747,3.558c3.593,0,7.079-1.096,10.342-2.219l-0.711-2.068C59.026,54.798,55.739,55.836,52.483,55.836z"
		/>
</g>
</svg>
