<?xml version="1.0" encoding="iso-8859-1"?>
<!-- Generator: Adobe Illustrator 16.0.0, SVG Export Plug-In . SVG Version: 6.00 Build 0)  -->
<!DOCTYPE svg PUBLIC "-//W3C//DTD SVG 1.1//EN" "http://www.w3.org/Graphics/SVG/1.1/DTD/svg11.dtd">
<svg version="1.1" id="Capa_1" xmlns="http://www.w3.org/2000/svg" xmlns:xlink="http://www.w3.org/1999/xlink" x="0px" y="0px"
	 width="509.516px" height="509.516px" viewBox="0 0 509.516 509.516" style="enable-background:new 0 0 509.516 509.516;"
	 xml:space="preserve">
<g>
	<g>
		<path d="M316.407,0L171.999,61.762L19.758,9.049v447.447l157.727,53.02l157.737-65.352l154.536,20.832V19.235L316.407,0z
			 M449.758,83.623l-82.504-18.16l-39.656,17.018l-70.986,5.973l-18.664,15.641l3.771,4.381l-0.693,9.699l-9.543-0.502l-1.23,17.393
			l64.321,47.064l16.878,52.07l23.475-25.34l-5.578-12.514l-7.429,4.883l-5.847-15.203l39.83,22.207l7.504,37.539l21.857-38.035
			l6.232,17.389l13.546,15.098l3.195-25.732l5.889-3.439l14.316-18.145l-10.97-32.848l4.504-4.879l13.969,16.266l1.154-3.564
			l8.093-51.912l4.563,3.023v200.403l-9.385-4.099l-18.099-1.408l-18.338-12.946l2.156-7.535l-16.223-2.586l-34.447,37.352
			l4.488,46.969l59.297,10.564l0.463,13.449l15.598,4.282l14.49-25.651v41.455l-119.882-16.16l-153.854,63.742L59.758,427.742
			V136.686l16.428-0.4l3.389,31.186l-11.201,30.441l31.384,59.345l11.641-23.371l-12.315,7.818l-2.695-21.08l22.784-11.01
			l2.615,12.387l1.155,0.311l31.894-51.852l0.24,0.236l-3.27-13.449l21.936-10.324l-20.17-28.514l-7.615-19.787l-86.2,6.951V65.229
			l113.759,39.389l148.94-63.701l127.301,14.124V83.623z"/>
		<polygon points="193.426,323.091 164.507,298.016 165.274,282.689 134.104,260.164 116.016,268.299 85.758,313.758 
			128.258,348.758 127.739,391.979 153.537,443.166 166.782,407.979 165.131,391.797 		"/>
		<polygon points="290.464,223.252 271.775,227.574 267.734,198.102 262.812,196.037 259.672,201.854 242.328,186.465 
			189.928,228.256 190.024,252.656 226.487,270.299 227.19,263.918 248.983,282.375 240.174,289.258 244.764,300.83 
			244.764,337.121 258.451,385.42 320.459,255.16 306.166,255.912 		"/>
		<polygon points="191.099,225.756 190.866,227.006 191.125,225.791 		"/>
	</g>
</g>
<g>
</g>
<g>
</g>
<g>
</g>
<g>
</g>
<g>
</g>
<g>
</g>
<g>
</g>
<g>
</g>
<g>
</g>
<g>
</g>
<g>
</g>
<g>
</g>
<g>
</g>
<g>
</g>
<g>
</g>
</svg>
