<?xml version="1.0" encoding="utf-8"?>
<!-- Generator: Adobe Illustrator 16.0.0, SVG Export Plug-In . SVG Version: 6.00 Build 0)  -->
<!DOCTYPE svg PUBLIC "-//W3C//DTD SVG 1.1//EN" "http://www.w3.org/Graphics/SVG/1.1/DTD/svg11.dtd">
<svg version="1.1" id="Layer_1" xmlns="http://www.w3.org/2000/svg" xmlns:xlink="http://www.w3.org/1999/xlink" x="0px" y="0px"
	 width="610px" height="790px" viewBox="1 0 610 790" enable-background="new 1 0 610 790" xml:space="preserve">
<g>
	<g>
		<path d="M216.771,394.54c0,55.081-42.906,80.447-95.67,80.447c-52.907,0-95.668-25.513-95.668-80.447
			c0-55.081,42.905-99.58,95.668-99.58C174.01,294.96,216.771,339.605,216.771,394.54z"/>
		<path d="M471.16,231.326c0,62.477-48.56,91.322-108.567,91.322c-60.012,0-108.57-28.993-108.57-91.322
			c0-62.475,48.703-113.062,108.57-113.062C422.602,118.264,471.16,168.851,471.16,231.326z"/>
		<path d="M538.274,225.818c0,30.44-22.181,44.646-49.43,44.646c-27.252,0-49.426-14.06-49.426-44.646
			c0-30.441,22.174-55.226,49.426-55.226C516.095,170.59,538.274,195.234,538.274,225.818z"/>
		<path d="M305.333,543.841c0,0,116.833-37.832,60.157-143.212l32.178-1.449c0,0,43.486,105.093-86.099,177.856L305.333,543.841z"/>
		<path d="M272.14,496.877c0,0-149.301,6.235-129.152-138.138l-37.251,11.885c0,0-13.771,130.312,164.955,158.437L272.14,496.877z"
			/>
		<path d="M383.464,488.615c0,0,81.173,17.829,84.216-63.199l19.276,10.146c0,0-5.072,72.769-105.667,70.883L383.464,488.615z"/>
		<polygon points="249.096,679.371 322.439,679.371 313.453,294.96 262.141,294.96 		"/>
		<path d="M574.801,320.326c0,70.882-54.646,103.641-122.05,103.641c-67.4,0-122.048-32.759-122.048-103.641
			c0-70.881,54.646-128.282,122.048-128.282C520.154,192.043,574.801,249.588,574.801,320.326z"/>
		<path d="M343.167,248.428c0,95.813-64.504,140.17-144.082,140.17c-79.579,0-144.083-44.354-144.083-140.17
			c0-95.815,64.503-173.364,144.083-173.364C278.663,75.067,343.167,152.615,343.167,248.428z"/>
		<path d="M478.119,354.824c0,74.216-40.008,108.568-89.291,108.568c-49.285,0-89.29-34.354-89.29-108.568
			c0-74.214,40.008-134.369,89.29-134.369C438.111,220.455,478.119,280.61,478.119,354.824z"/>
		<path d="M589.44,423.386c0,55.082-40.009,80.45-89.29,80.45c-49.286,0-89.291-25.512-89.291-80.45
			c0-54.936,40.008-99.581,89.291-99.581C549.436,323.805,589.44,368.307,589.44,423.386z"/>
		<path d="M589.44,423.386c0,55.082-40.009,80.45-89.29,80.45c-49.286,0-89.291-25.512-89.291-80.45
			c0-54.936,40.008-99.581,89.291-99.581C549.436,323.805,589.44,368.307,589.44,423.386z"/>
	</g>
</g>
</svg>
