<?xml version="1.0" encoding="utf-8"?>
<!-- Generator: Adobe Illustrator 16.0.0, SVG Export Plug-In . SVG Version: 6.00 Build 0)  -->
<!DOCTYPE svg PUBLIC "-//W3C//DTD SVG 1.1//EN" "http://www.w3.org/Graphics/SVG/1.1/DTD/svg11.dtd">
<svg version="1.1" id="Layer_1" xmlns="http://www.w3.org/2000/svg" xmlns:xlink="http://www.w3.org/1999/xlink" x="0px" y="0px"
	 width="792px" height="612px" viewBox="0 0 792 612" enable-background="new 0 0 792 612" xml:space="preserve">
<title>Artboard 39</title>
<path d="M273.466,27.984c53.918,0,97.627,43.709,97.627,97.627s-43.709,97.627-97.627,97.627s-97.627-43.709-97.627-97.627
	S219.548,27.984,273.466,27.984z M419.907,125.611c0,53.918,43.709,97.627,97.627,97.627c53.917,0,97.627-43.709,97.627-97.627
	s-43.71-97.627-97.627-97.627C463.616,27.984,419.907,71.693,419.907,125.611z M761.602,589.339
	c13.479,0,24.406-10.926,24.406-24.406c-0.047-61.002-37.905-115.585-95.024-137.004c45.836-28.396,59.97-88.572,31.574-134.406
	c-28.396-45.834-88.572-59.97-134.406-31.573c-45.835,28.396-59.97,88.573-31.574,134.407c7.943,12.821,18.751,23.629,31.574,31.572
	c-28.86,10.815-53.571,30.46-70.617,56.137c-17.047-25.677-41.758-45.321-70.618-56.137c45.834-28.396,59.97-88.572,31.574-134.406
	c-28.396-45.834-88.573-59.97-134.407-31.573c-45.834,28.396-59.97,88.573-31.573,134.407c7.944,12.821,18.75,23.629,31.573,31.572
	c-28.86,10.815-53.571,30.46-70.617,56.137c-17.045-25.677-41.757-45.321-70.617-56.137c45.834-28.396,59.97-88.572,31.573-134.406
	s-88.573-59.97-134.407-31.573c-45.834,28.396-59.97,88.573-31.573,134.407c7.944,12.821,18.75,23.629,31.573,31.572
	C42.897,449.348,5.039,503.931,4.992,564.933c0,13.48,10.927,24.406,24.407,24.406H761.602z"/>
</svg>
