<?xml version="1.0" encoding="iso-8859-1"?>
<!-- Generator: Adobe Illustrator 16.0.0, SVG Export Plug-In . SVG Version: 6.00 Build 0)  -->
<!DOCTYPE svg PUBLIC "-//W3C//DTD SVG 1.1//EN" "http://www.w3.org/Graphics/SVG/1.1/DTD/svg11.dtd">
<svg version="1.1" id="Capa_1" xmlns="http://www.w3.org/2000/svg" xmlns:xlink="http://www.w3.org/1999/xlink" x="0px" y="0px"
	 width="575.293px" height="575.293px" viewBox="0 0 575.293 575.293" style="enable-background:new 0 0 575.293 575.293;"
	 xml:space="preserve">
<g>
	<path d="M459.471,295.352l-31.297-2.999v-98.593c0-3.721-2.35-7.026-5.863-8.237l-42.129-14.566V58.642
		c0-3.072-1.617-5.912-4.26-7.479L292.113,1.224c0,0-1.787-1.236-4.455-1.224c-2.681,0.024-4.456,1.224-4.456,1.224l-83.807,49.939
		c-2.644,1.566-4.259,4.406-4.259,7.479v112.314l-42.13,14.566c-3.513,1.211-5.875,4.517-5.875,8.237v98.594l-31.298,2.998
		c-4.467,0.429-7.882,4.187-7.882,8.679v193.44c0,3.55,2.154,6.757,5.447,8.079l170.98,69.106c0,0,1.505,0.624,3.268,0.637
		c1.762,0.012,3.268-0.637,3.268-0.637l170.98-69.106c3.305-1.322,5.447-4.529,5.447-8.079V304.03
		C467.354,299.538,463.939,295.78,459.471,295.352z M158.759,460.041c0,0.906-0.416,1.774-1.15,2.313
		c-0.502,0.379-1.126,0.587-1.763,0.587c-0.245,0-0.514-0.036-0.771-0.109l-26.94-7.516c-1.249-0.355-2.13-1.493-2.13-2.803v-49.891
		c0-0.845,0.367-1.652,1.016-2.203c0.648-0.562,1.505-0.796,2.326-0.673l26.94,4.149c1.42,0.232,2.46,1.444,2.46,2.876v53.269
		H158.759z M158.759,380.163c0,0.808-0.331,1.591-0.942,2.142c-0.539,0.489-1.236,0.759-1.958,0.759c-0.086,0-0.171,0-0.257-0.012
		l-26.94-2.473c-1.493-0.135-2.644-1.384-2.644-2.889v-49.902c0-1.567,1.236-2.84,2.803-2.901l26.94-0.894
		c0.784-0.024,1.555,0.282,2.118,0.82c0.575,0.539,0.881,1.285,0.881,2.081V380.163L158.759,380.163z M206.765,473.443
		c0,0.906-0.417,1.775-1.151,2.313c-0.501,0.38-1.126,0.588-1.762,0.588c-0.257,0-0.526-0.037-0.784-0.11l-33.121-9.241
		c-1.249-0.354-2.13-1.493-2.13-2.803v-55.129c0-0.832,0.367-1.652,1.016-2.203c0.648-0.551,1.493-0.783,2.325-0.674l33.122,5.104
		c1.42,0.232,2.46,1.444,2.46,2.876v59.278H206.765z M206.765,384.557c0,0.809-0.331,1.592-0.942,2.154
		c-0.539,0.49-1.236,0.759-1.958,0.759c-0.086,0-0.184,0-0.257-0.012l-33.121-3.036c-1.494-0.135-2.644-1.383-2.644-2.889v-55.116
		c0-1.566,1.236-2.852,2.803-2.901l33.121-1.102c0.796-0.036,1.555,0.258,2.118,0.809c0.575,0.551,0.881,1.297,0.881,2.08V384.557
		L206.765,384.557z M206.765,266.037c0,1.432-1.041,2.656-2.448,2.864l-33.121,5.251c-0.147,0.024-0.294,0.037-0.453,0.037
		c-0.686,0-1.346-0.257-1.873-0.698c-0.661-0.563-1.028-1.358-1.028-2.215v-55.117c0-1.298,0.869-2.436,2.118-2.803l33.121-9.388
		c0.869-0.257,1.812-0.073,2.546,0.478c0.735,0.551,1.151,1.408,1.151,2.313v59.278H206.765z M266.961,490.249
		c0,0.906-0.429,1.763-1.151,2.302c-0.514,0.392-1.138,0.6-1.75,0.6c-0.257,0-0.526-0.037-0.796-0.11l-41.689-11.641
		c-1.261-0.343-2.117-1.493-2.117-2.803v-61.567c0-0.844,0.367-1.652,1.003-2.203c0.649-0.551,1.506-0.795,2.338-0.673l41.689,6.426
		c1.408,0.221,2.46,1.433,2.46,2.864v66.806H266.961z M266.961,390.077c0,0.808-0.343,1.591-0.942,2.142
		c-0.539,0.49-1.249,0.76-1.958,0.76c-0.098,0-0.184-0.013-0.27-0.013l-41.677-3.819c-1.505-0.146-2.644-1.395-2.644-2.889v-61.566
		c0-1.567,1.249-2.853,2.803-2.901l41.689-1.383c0.784-0.037,1.542,0.257,2.118,0.808c0.563,0.551,0.881,1.298,0.881,2.093V390.077
		L266.961,390.077z M266.961,256.514c0,1.42-1.041,2.644-2.448,2.864l-41.689,6.597c-0.159,0.025-0.306,0.037-0.453,0.037
		c-0.698,0-1.359-0.245-1.885-0.698c-0.648-0.551-1.016-1.359-1.016-2.215v-61.567c0-1.285,0.857-2.436,2.105-2.791l41.689-11.812
		c0.881-0.245,1.824-0.073,2.546,0.478c0.722,0.551,1.163,1.408,1.163,2.313v66.793H266.961z M266.961,122.951
		c0,1.188-0.722,2.252-1.812,2.693l-41.689,17.026c-0.355,0.159-0.734,0.232-1.102,0.232c-0.575,0-1.139-0.171-1.628-0.501
		c-0.796-0.539-1.273-1.444-1.273-2.412V78.41c0-1.077,0.587-2.069,1.53-2.57l41.689-22.228c0.906-0.478,1.995-0.453,2.864,0.073
		c0.869,0.526,1.408,1.469,1.408,2.485v66.781H266.961z M355.859,478.609c0,1.297-0.855,2.447-2.117,2.803l-41.689,11.641
		c-0.256,0.073-0.525,0.109-0.783,0.109c-0.625,0-1.248-0.208-1.762-0.6c-0.723-0.551-1.15-1.396-1.15-2.301V423.48
		c0-1.433,1.051-2.656,2.459-2.864l41.689-6.427c0.832-0.134,1.701,0.123,2.338,0.674s1.004,1.347,1.004,2.203v61.543H355.859z
		 M355.859,386.258c0,1.494-1.139,2.755-2.643,2.889l-41.678,3.819c-0.098,0-0.184,0.013-0.27,0.013c-0.723,0-1.42-0.27-1.959-0.76
		c-0.6-0.551-0.941-1.321-0.941-2.142v-66.781c0-0.783,0.318-1.542,0.881-2.093c0.576-0.551,1.322-0.845,2.117-0.809l41.689,1.384
		c1.566,0.049,2.803,1.334,2.803,2.9V386.258z M355.859,263.111c0,0.844-0.367,1.665-1.016,2.215
		c-0.525,0.453-1.199,0.698-1.885,0.698c-0.146,0-0.307-0.012-0.453-0.037l-41.689-6.598c-1.408-0.232-2.447-1.444-2.447-2.864
		v-66.781c0-0.906,0.428-1.775,1.162-2.313c0.723-0.551,1.664-0.722,2.547-0.477l41.689,11.812c1.248,0.355,2.105,1.505,2.105,2.791
		v61.555H355.859z M355.859,139.977c0,0.967-0.477,1.873-1.271,2.411c-0.49,0.33-1.053,0.502-1.629,0.502
		c-0.367,0-0.746-0.074-1.102-0.233l-41.689-17.026c-1.09-0.44-1.799-1.505-1.799-2.692v-66.77c0-1.016,0.539-1.958,1.406-2.485
		c0.869-0.526,1.959-0.551,2.865-0.073l41.689,22.228c0.941,0.501,1.529,1.493,1.529,2.57V139.977z M407.488,464.202
		c0,1.298-0.869,2.437-2.129,2.804l-33.123,9.241c-0.256,0.073-0.514,0.11-0.77,0.11c-0.637,0-1.262-0.209-1.764-0.588
		c-0.723-0.551-1.15-1.408-1.15-2.313v-59.254c0-1.432,1.041-2.656,2.461-2.876l33.121-5.104c0.832-0.122,1.689,0.122,2.326,0.673
		c0.648,0.551,1.016,1.359,1.016,2.203v55.104H407.488z M407.488,381.521c0,1.506-1.15,2.767-2.645,2.889l-33.121,3.035
		c-0.086,0.013-0.184,0.013-0.256,0.013c-0.734,0-1.42-0.257-1.959-0.759c-0.611-0.563-0.943-1.334-0.943-2.154v-59.267
		c0-0.783,0.307-1.529,0.883-2.08c0.562-0.551,1.32-0.845,2.117-0.809l33.121,1.102c1.566,0.05,2.814,1.335,2.814,2.901v55.129
		H407.488z M407.488,271.288c0,0.844-0.367,1.652-1.027,2.215c-0.527,0.44-1.201,0.698-1.873,0.698c-0.16,0-0.307-0.012-0.453-0.037
		l-33.121-5.251c-1.408-0.221-2.449-1.432-2.449-2.864v-59.254c0-0.906,0.416-1.775,1.15-2.313c0.734-0.551,1.678-0.734,2.547-0.477
		l33.121,9.388c1.248,0.355,2.117,1.494,2.117,2.803v55.092H407.488z M449.312,452.525c0,1.298-0.869,2.436-2.131,2.803
		l-26.939,7.516c-0.27,0.073-0.525,0.11-0.771,0.11c-0.637,0-1.26-0.208-1.762-0.588c-0.734-0.551-1.15-1.407-1.15-2.312v-53.257
		c0-1.432,1.039-2.656,2.459-2.876l26.941-4.149c0.832-0.135,1.689,0.11,2.324,0.673c0.65,0.551,1.018,1.347,1.018,2.203v49.878
		H449.312z M449.312,377.678c0,1.506-1.15,2.767-2.645,2.889l-26.939,2.473c-0.098,0.013-0.184,0.013-0.258,0.013
		c-0.734,0-1.42-0.27-1.957-0.759c-0.613-0.551-0.943-1.322-0.943-2.143v-53.269c0-0.783,0.307-1.542,0.881-2.081
		c0.564-0.551,1.322-0.844,2.117-0.819l26.941,0.894c1.566,0.061,2.814,1.334,2.814,2.9v49.902H449.312z"/>
</g>
<g>
</g>
<g>
</g>
<g>
</g>
<g>
</g>
<g>
</g>
<g>
</g>
<g>
</g>
<g>
</g>
<g>
</g>
<g>
</g>
<g>
</g>
<g>
</g>
<g>
</g>
<g>
</g>
<g>
</g>
</svg>
